<svg xmlns="http://www.w3.org/2000/svg" fill="none" viewBox="0 0 253 253"><g stroke-linecap="round" stroke-linejoin="round" clip-path="url(#walletgo_metamask)"><path fill="#E2761B" stroke="#E2761B" d="m242.1 8.5-99.5 73.9L161 38.8l81.1-30.3Z"></path><path fill="#E4761B" stroke="#E4761B" d="m12.4 8.5 98.7 74.6-17.5-44.3L12.4 8.5Zm193.9 171.3-26.5 40.6 56.7 15.6 16.3-55.3-46.5-.9Zm-204.4.9L18.1 236l56.7-15.6-26.5-40.6-46.4.9Z"></path><path fill="#E4761B" stroke="#E4761B" d="m71.6 111.2-15.8 23.9 56.3 2.5-2-60.5-38.5 34.1Zm111.3 0-39-34.8-1.3 61.2 56.2-2.5-15.9-23.9ZM74.8 220.4l33.8-16.5-29.2-22.8-4.6 39.3Zm71.1-16.5 33.9 16.5-4.7-39.3-29.2 22.8Z"></path><path fill="#D7C1B3" stroke="#D7C1B3" d="m179.8 220.4-33.9-16.5 2.7 22.1-.3 9.3 31.5-14.9Zm-105 0 31.5 14.9-.2-9.3 2.5-22.1-33.8 16.5Z"></path><path fill="#233447" stroke="#233447" d="m106.8 166.5-28.2-8.3 19.9-9.1 8.3 17.4Zm40.9 0 8.3-17.4 20 9.1-28.3 8.3Z"></path><path fill="#CD6116" stroke="#CD6116" d="m74.8 220.4 4.8-40.6-31.3.9 26.5 39.7ZM175 179.8l4.8 40.6 26.5-39.7-31.3-.9Zm23.8-44.7-56.2 2.5 5.2 28.9 8.3-17.4 20 9.1 22.7-23.1ZM78.6 158.2l20-9.1 8.2 17.4 5.3-28.9-56.3-2.5 22.8 23.1Z"></path><path fill="#E4751F" stroke="#E4751F" d="m55.8 135.1 23.6 46-.8-22.9-22.8-23.1Zm120.3 23.1-1 22.9 23.7-46-22.7 23.1Zm-64-20.6-5.3 28.9 6.6 34.1 1.5-44.9-2.8-18.1Zm30.5 0-2.7 18 1.2 45 6.7-34.1-5.2-28.9Z"></path><path fill="#F6851B" stroke="#F6851B" d="m147.8 166.5-6.7 34.1 4.8 3.3 29.2-22.8 1-22.9-28.3 8.3Zm-69.2-8.3.8 22.9 29.2 22.8 4.8-3.3-6.6-34.1-28.2-8.3Z"></path><path fill="#C0AD9E" stroke="#C0AD9E" d="m148.3 235.3.3-9.3-2.5-2.2h-37.7l-2.3 2.2.2 9.3-31.5-14.9 11 9 22.3 15.5h38.3l22.4-15.5 11-9-31.5 14.9Z"></path><path fill="#161616" stroke="#161616" d="m145.9 203.9-4.8-3.3h-27.7l-4.8 3.3-2.5 22.1 2.3-2.2h37.7l2.5 2.2-2.7-22.1Z"></path><path fill="#763D16" stroke="#763D16" d="m246.3 87.2 8.5-40.8-12.7-37.9-96.2 71.4 37 31.3 52.3 15.3 11.6-13.5-5-3.6 8-7.3-6.2-4.8 8-6.1-5.3-4ZM-.2 46.4l8.5 40.8-5.4 4 8 6.1-6.1 4.8 8 7.3-5 3.6 11.5 13.5 52.3-15.3 37-31.3L12.4 8.5-.2 46.4Z"></path><path fill="#F6851B" stroke="#F6851B" d="m235.2 126.5-52.3-15.3 15.9 23.9-23.7 46 31.2-.4h46.5l-17.6-54.2ZM71.6 111.2l-52.3 15.3-17.4 54.2h46.4l31.1.4-23.6-46 15.8-23.9Zm71 26.4 3.3-57.7 15.2-41.1H93.6l15 41.1 3.5 57.7 1.2 18.2.1 44.8h27.7l.2-44.8 1.3-18.2Z"></path></g></svg>